# xmcd CD database file
#
# Track frame offsets:
#	150
#	18971
#	42140
#	55947
#	72642
#	86564
#	103524
#	119014
#	138970
#	160337
#	174979
#
# Disc length: 2565 seconds
#
# Revision: 0
# Processed by: cddbd v1.5PL3 Copyright (c) Steve Scherf et al.
# Submitted via: CDex 1.51
#
DISCID=910a030b
DTITLE=Count Basie - American Jazz and Blues History
DYEAR=1999
DGENRE=Blues
TTITLE0=Gee baby ani´t I good to you
TTITLE1=Taps miller
TTITLE2=Basie strides again
TTITLE3=beaver junction
TTITLE4=Jjimmy´s blues
TTITLE5=circus in rhytm
TTITLE6=old manuscript
TTITLE7=Kansas city
TTITLE8=playhouse nr. 2 stomp
TTITLE9=take me back baby
TTITLE10=on the upbeat
EXTD=YEAR: 1999
EXTT0=
EXTT1=
EXTT2=
EXTT3=
EXTT4=
EXTT5=
EXTT6=
EXTT7=
EXTT8=
EXTT9=
EXTT10=
PLAYORDER=
